<svg xmlns="http://www.w3.org/2000/svg" width="257" height="51.154" viewBox="0 0 257 51.154"><defs><style>.a{fill:#fff;fill-rule:evenodd;}</style></defs><path class="a" d="M267.958,231.362l-2.257,16.26h4.689ZM246.319,271l-.012-8.49a7.677,7.677,0,0,0,3-4.424l7.225-38.189,21.909.022,8.707,38.387c.8,2.983,1.715,3.13,2.735,4.136l-.064,8.594H270.339l.037-8.824a4.466,4.466,0,0,0,1.578-1.979l0-2.654-7.909-.007,0,2.677a4.5,4.5,0,0,0,1.858,2l-.007,8.751Zm63.145.005.005-8.746a4.621,4.621,0,0,0,3.007-3.324V230.509a3.763,3.763,0,0,0-2.971,2.993l-.065,9.563-10.85-.02.015-23.143h43.916l.049,23.077H331.138L331.094,233c-.681-1.751-1.725-2.359-3.119-2.328l-.014,27.932a6.422,6.422,0,0,0,2.991,3.91l0,8.494Zm-96.1-21.042.024,10.529c4.141-.1,6.63-.925,7.269-4.494a15.568,15.568,0,0,0-.133-1.737,5.783,5.783,0,0,0-4.853-4.177C215.1,250.008,214.048,250.027,213.361,249.968Zm.01-19.752.021,9.145c3.679.342,6.12-.941,6.7-4.287C220.112,231.037,217.665,229.836,213.371,230.216Zm-18.842,40.839v-9.318a4.449,4.449,0,0,0,1.814-3.251l-.026-26.631a4.4,4.4,0,0,0-1.825-2.967l.038-8.986h27.955c14.366.548,17.211,18.872,5.363,24.071,13.2,5.379,10.684,26.617-4.124,27.038Zm-32.913-39.774-2.257,16.26h4.689ZM139.67,271l-.013-8.68a6.668,6.668,0,0,0,2.524-4.234l7.464-38.189,22.634.022,8.817,38.388c.831,2.983,1.756,3.129,2.81,4.135l.03,8.594H163.909l.034-8.824a3.843,3.843,0,0,0,1.437-1.883l0-2.749-7.977-.007,0,2.677a4.559,4.559,0,0,0,1.919,2l.086,8.752Zm-54.1-51.068.018,8.979c1.082.411,1.491,1.24,1.636,2.745l.071,28.031a3.688,3.688,0,0,1-1.721,2.457l.012,8.881,19.179-.021.036-8.679a5.988,5.988,0,0,1-1.667-2.625l.045-8.678,7.368.056.07,8.591a5.028,5.028,0,0,1-1.546,2.8l-.01,8.565,19.664-.032-.039-8.631a6.247,6.247,0,0,1-1.867-3.162l.046-27.847a2.985,2.985,0,0,1,1.9-2.453l-.043-9.006-19.676-.01.039,8.949a5.2,5.2,0,0,1,1.479,2.668l.017,8.119-7.471.078.022-8.293a4.372,4.372,0,0,1,1.674-2.482l-.054-9.022Z" transform="translate(-85.571 -219.901)"/></svg>