<svg xmlns="http://www.w3.org/2000/svg" width="106.333" height="103.067" viewBox="0 0 106.333 103.067"><defs><style>.a{fill:#ffbc21;}.b,.d{fill:#003e84;}.b,.c{fill-rule:evenodd;}.c{fill:#fff;}</style></defs><g transform="translate(0.001 -2)"><rect class="a" width="94.433" height="79.875" transform="translate(5.949 13.596)"/><path class="b" d="M66.284,2a53.18,53.18,0,0,1,0,103.067v-37.1H40.047v37.1A53.18,53.18,0,0,1,40.047,2V38.814H66.284Z" transform="translate(0)"/><path class="c" d="M136.272,223.087l-.627,4.52h1.3Zm-6.015,11.02,0-2.36a2.134,2.134,0,0,0,.835-1.23L133.1,219.9l6.09.006,2.42,10.671a1.772,1.772,0,0,0,.76,1.15l-.018,2.389h-5.416l.01-2.453a1.242,1.242,0,0,0,.439-.55v-.738l-2.2,0v.744a1.251,1.251,0,0,0,.516.557l0,2.433Zm17.553,0v-2.431a1.284,1.284,0,0,0,.836-.924v-7.9a1.046,1.046,0,0,0-.826.832l-.018,2.658-3.016-.006,0-6.433H157l.014,6.415h-3.178l-.012-2.773a.848.848,0,0,0-.867-.647l0,7.765a1.785,1.785,0,0,0,.831,1.087v2.361Zm-26.715-5.849.007,2.927c1.151-.027,1.843-.257,2.021-1.249a4.324,4.324,0,0,0-.037-.483,1.608,1.608,0,0,0-1.349-1.161C121.579,228.27,121.286,228.276,121.095,228.259Zm0-5.491.006,2.542c1.023.1,1.7-.262,1.861-1.192C122.971,223,122.291,222.663,121.1,222.768Zm-5.238,11.352v-2.59a1.237,1.237,0,0,0,.5-.9l-.007-7.4a1.223,1.223,0,0,0-.507-.825l.011-2.5h7.771a3.5,3.5,0,0,1,1.491,6.691c3.668,1.5,2.97,7.4-1.146,7.516Zm-9.149-11.057-.627,4.52h1.3Zm-6.1,11.043,0-2.413a1.854,1.854,0,0,0,.7-1.177l2.075-10.616,6.292.006,2.451,10.671a1.771,1.771,0,0,0,.781,1.149l.008,2.389h-5.567l.009-2.453a1.068,1.068,0,0,0,.4-.524v-.764l-2.217,0v.744a1.267,1.267,0,0,0,.534.557l.024,2.433Zm-15.039-14.2,0,2.5c.3.114.414.345.455.763l.02,7.792a1.025,1.025,0,0,1-.478.683l0,2.469,5.332-.006.01-2.413a1.665,1.665,0,0,1-.463-.73l.013-2.412,2.048.015.019,2.388a1.4,1.4,0,0,1-.43.779l0,2.381,5.466-.009-.011-2.4a1.737,1.737,0,0,1-.519-.879l.013-7.741a.83.83,0,0,1,.529-.682l-.012-2.5-5.47,0,.011,2.488a1.446,1.446,0,0,1,.411.742l0,2.257-2.077.022.006-2.305a1.216,1.216,0,0,1,.465-.69l-.015-2.508Z" transform="translate(-68.126 -173.478)"/><rect class="d" width="0.409" height="80.286" transform="translate(5.744 13.392)"/><rect class="d" width="0.409" height="80.286" transform="translate(100.169 13.392)"/><rect class="d" width="94.835" height="0.409" transform="translate(5.744 93.268)"/><rect class="d" width="94.835" height="0.409" transform="translate(5.748 13.392)"/><path class="c" d="M347.18,58.155H324.843v-.409h21.868Z" transform="translate(-258.618 -44.381)"/><path class="c" d="M87.114,58.155h22.337v-.409H87.583Z" transform="translate(-69.354 -44.381)"/><path class="c" d="M87.116,449.679h22.337v.409H87.586Z" transform="translate(-69.356 -356.41)"/><path class="c" d="M347.183,449.679H324.845v.409h21.867Z" transform="translate(-258.62 -356.41)"/></g></svg>