<svg xmlns="http://www.w3.org/2000/svg" width="175.118" height="26.571" viewBox="0 0 175.118 26.571"><defs><style>.a{fill:#5987bb;}</style></defs><path class="a" d="M615.783,331v21.079L591.5,331.212v25.381h2.01v-21l24.283,20.866V331Z" transform="translate(-442.675 -330.023)"/><path class="a" d="M539.483,355.978h2.355a13.751,13.751,0,0,1,23.144,0h2.363l-13.908-26.437Zm13.927-8.333a15.694,15.694,0,0,0-8.609,2.563l8.634-16.356,8.614,16.375A15.694,15.694,0,0,0,553.41,347.645Z" transform="translate(-425.509 -329.541)"/><rect class="a" width="2.01" height="25.459" transform="translate(103.266 0.978)"/><path class="a" d="M483.73,331H471v25.459h12.73a12.73,12.73,0,1,0,0-25.459Zm0,23.449H473.01V333.01h10.72a10.72,10.72,0,0,1,0,21.44Z" transform="translate(-402.908 -330.023)"/><path class="a" d="M418.524,355.978h2.356a13.75,13.75,0,0,1,23.143,0h2.363l-13.908-26.437Zm13.928-8.333a15.691,15.691,0,0,0-8.609,2.563l8.633-16.356,8.615,16.375A15.7,15.7,0,0,0,432.452,347.645Z" transform="translate(-386.59 -329.541)"/><path class="a" d="M395.251,341.05A10.061,10.061,0,0,0,385.2,331H369.368v25.459h2.01V351.1h8.82a13.042,13.042,0,0,1,10.505,5.359h2.423a15.185,15.185,0,0,0-5.846-5.578A10.065,10.065,0,0,0,395.251,341.05Zm-10.05,8.04H371.378v-16.08H385.2a8.04,8.04,0,0,1,0,16.08Z" transform="translate(-369.368 -330.023)"/></svg>