<svg xmlns="http://www.w3.org/2000/svg" xmlns:xlink="http://www.w3.org/1999/xlink" width="582" height="395" viewBox="0 0 582 395"><defs><style>.a,.e{fill:#fff;}.a{stroke:#707070;}.b{clip-path:url(#a);}.c{fill:none;fill-rule:evenodd;opacity:0.04;}.d,.e{stroke:none;}</style><clipPath id="a"><rect class="a" width="582" height="395" transform="translate(152 5274)"/></clipPath></defs><g class="b" transform="translate(-152 -5274)"><g class="c" transform="translate(175.651 5116.003)"><path class="d" d="M331.85,2c115.228,29.255,200.5,133.684,200.5,258s-85.271,228.743-200.5,258V332.249H200.5V518C85.27,488.742,0,384.312,0,260S85.27,31.254,200.5,2V186.308H331.85Z"/><path class="e" d="M 200.4976501464844 2 C 85.27008056640625 31.254150390625 -0.0009765625 135.6841430664063 -0.0009765625 259.9985046386719 C -0.0009765625 384.3119201660156 85.27008056640625 488.7419128417969 200.4976501464844 517.9971313476563 L 200.4976501464844 332.2490844726563 L 331.8504943847656 332.2490844726563 L 331.8504943847656 517.9971313476563 C 447.0780029296875 488.7419128417969 532.34912109375 384.3119201660156 532.34912109375 259.9985046386719 C 532.34912109375 135.6841430664063 447.0780029296875 31.25521850585938 331.8504943847656 2 L 331.8504943847656 186.307861328125 L 200.4976501464844 186.307861328125 L 200.4976501464844 2 M 327.8504943847656 -3.14251708984375 L 332.8348388671875 -1.87701416015625 C 347.2798461914063 1.7904052734375 361.5214233398438 6.7039794921875 375.1641235351563 12.727294921875 C 388.6026611328125 18.66033935546875 401.6626586914063 25.75906372070313 413.9814453125 33.8262939453125 C 426.192626953125 41.82305908203125 437.8496398925781 50.88528442382813 448.6287841796875 60.76113891601563 C 459.3875122070313 70.61834716796875 469.4212036132813 81.42312622070313 478.4511413574219 92.87542724609375 C 487.5274353027344 104.3863525390625 495.7172241210938 116.7135009765625 502.7931518554688 129.5144958496094 C 509.9528503417969 142.4670715332031 516.0774536132813 156.0960693359375 520.9967041015625 170.0229187011719 C 531.183837890625 198.8631286621094 536.34912109375 229.1353454589844 536.34912109375 259.9985046386719 C 536.34912109375 290.8614196777344 531.183837890625 321.1334838867188 520.9967041015625 349.9736938476563 C 516.0774536132813 363.9005126953125 509.9528503417969 377.5294799804688 502.7931518554688 390.4821166992188 C 495.7172241210938 403.2831420898438 487.5274353027344 415.6103515625 478.4511413574219 427.1212768554688 C 469.4212036132813 438.5736389160156 459.3875122070313 449.3784790039063 448.6287841796875 459.2357177734375 C 437.8496398925781 469.1116333007813 426.192626953125 478.1738586425781 413.9814453125 486.1707153320313 C 401.6626586914063 494.2379150390625 388.6026611328125 501.3367004394531 375.1641235351563 507.2698364257813 C 361.5214233398438 513.2930908203125 347.27978515625 518.2067260742188 332.8348388671875 521.8741455078125 L 327.8504943847656 523.1396484375 L 327.8504943847656 517.9971313476563 L 327.8504943847656 336.2490844726563 L 204.4976501464844 336.2490844726563 L 204.4976501464844 517.9971313476563 L 204.4976501464844 523.1396484375 L 199.5132751464844 521.8741455078125 C 185.0682983398438 518.2067260742188 170.8267211914063 513.2930908203125 157.1839904785156 507.2698364257813 C 143.7455139160156 501.3367004394531 130.6854248046875 494.2379150390625 118.3667297363281 486.1707153320313 C 106.1554870605469 478.1738586425781 94.49844360351563 469.1116333007813 83.7193603515625 459.2357177734375 C 72.96063232421875 449.3784790039063 62.92694091796875 438.5736389160156 53.89694213867188 427.1212768554688 C 44.82070922851563 415.6103515625 36.63092041015625 403.2831420898438 29.55499267578125 390.4821166992188 C 22.39529418945313 377.5294799804688 16.27069091796875 363.9005126953125 11.3514404296875 349.9736938476563 C 1.164306640625 321.1334838867188 -4.0009765625 290.8614196777344 -4.0009765625 259.9985046386719 C -4.0009765625 229.1353454589844 1.164306640625 198.8631286621094 11.3514404296875 170.022705078125 C 16.27069091796875 156.0959167480469 22.39529418945313 142.4668579101563 29.55499267578125 129.5142211914063 C 36.63092041015625 116.713134765625 44.82070922851563 104.3859252929688 53.89694213867188 92.875 C 62.92694091796875 81.42269897460938 72.96063232421875 70.61785888671875 83.7193603515625 60.76065063476563 C 94.49844360351563 50.884765625 106.1554870605469 41.82257080078125 118.3667297363281 33.82583618164063 C 130.6854248046875 25.75863647460938 143.7455139160156 18.659912109375 157.1839904785156 12.7269287109375 C 170.8267211914063 6.70379638671875 185.068359375 1.790283203125 199.5133666992188 -1.87701416015625 L 204.4976501464844 -3.1424560546875 L 204.4976501464844 2 L 204.4976501464844 182.307861328125 L 327.8504943847656 182.307861328125 L 327.8504943847656 2 L 327.8504943847656 -3.14251708984375 Z"/></g></g></svg>