<svg xmlns="http://www.w3.org/2000/svg" width="13.937" height="28" viewBox="0 0 13.937 28"><defs><style>.a{fill:#fff;fill-rule:evenodd;}</style></defs><path class="a" d="M578.162,289.77v12.5a.378.378,0,0,0,.378.378h5.386a.378.378,0,0,0,.378-.378v-12.74h3.905a.378.378,0,0,0,.376-.346l.375-4.441a.378.378,0,0,0-.377-.41H584.3v-3.151a1.337,1.337,0,0,1,1.337-1.337h3.009a.378.378,0,0,0,.378-.377V275.03a.378.378,0,0,0-.378-.378h-5.085a5.4,5.4,0,0,0-5.4,5.4v4.282h-2.693a.378.378,0,0,0-.378.378v4.441a.378.378,0,0,0,.378.378h2.693Z" transform="translate(-575.091 -274.652)"/></svg>