<svg xmlns="http://www.w3.org/2000/svg" width="431.555" height="85.897" viewBox="0 0 431.555 85.897"><defs><style>.a{fill:#003e84;fill-rule:evenodd;}</style></defs><path class="a" d="M391.835,239.147l-3.789,27.3h7.873ZM355.5,305.714l-.021-14.256a12.892,12.892,0,0,0,5.043-7.43L372.653,219.9l36.79.037,14.62,64.459c1.351,5.008,2.879,5.256,4.592,6.946l-.108,14.432-32.714,0,.061-14.817a7.5,7.5,0,0,0,2.649-3.323l0-4.457-13.281-.012,0,4.5a7.557,7.557,0,0,0,3.119,3.363l-.011,14.7Zm106.034.009.009-14.686a7.759,7.759,0,0,0,5.049-5.582V237.714c-2.387.5-4.084,1.935-4.989,5.026l-.11,16.057-18.22-.034L443.3,219.9h73.745l.082,38.75h-19.2l-.074-16.749c-1.144-2.94-2.9-3.962-5.238-3.909l-.023,46.9a10.784,10.784,0,0,0,5.022,6.565l-.007,14.263ZM300.156,270.389l.041,17.681c6.954-.164,11.133-1.553,12.205-7.545a26.135,26.135,0,0,0-.223-2.916,9.711,9.711,0,0,0-8.149-7.013C303.08,270.456,301.309,270.488,300.156,270.389Zm.016-33.167.036,15.356c6.178.575,10.277-1.58,11.244-7.2C311.492,238.6,307.383,236.584,300.172,237.222ZM268.533,305.8V290.151a7.471,7.471,0,0,0,3.045-5.459l-.044-44.718a7.389,7.389,0,0,0-3.065-4.983l.064-15.088h46.942c24.124.92,28.9,31.69,9.006,40.42,22.159,9.033,17.94,44.695-6.925,45.4ZM213.265,239.01l-3.789,27.3h7.874Zm-36.851,66.7-.022-14.575c1.906-1.263,3.438-3.633,4.238-7.11L193.162,219.9l38.008.037L245.975,284.4c1.4,5.009,2.948,5.254,4.718,6.944l.051,14.432-33.627,0,.057-14.817a6.454,6.454,0,0,0,2.413-3.163l0-4.617-13.4-.012,0,4.5a7.655,7.655,0,0,0,3.223,3.363l.144,14.7ZM85.571,219.961l.03,15.077c1.816.69,2.5,2.083,2.747,4.61l.119,47.07a6.193,6.193,0,0,1-2.889,4.125l.021,14.912,32.206-.035.06-14.574c-1.275-.832-2.068-2.721-2.8-4.408l.076-14.572,12.373.093.117,14.426c-.451,1.639-1.154,3.7-2.6,4.708l-.017,14.383,33.019-.054-.065-14.494a10.49,10.49,0,0,1-3.135-5.309l.076-46.76a5.013,5.013,0,0,1,3.2-4.119l-.073-15.123L125,219.9l.065,15.027c1.363,1.063,1.775,2.5,2.483,4.48l.028,13.634-12.545.131.037-13.926c.835-2.092,1.462-3.4,2.811-4.168l-.09-15.15Z" transform="translate(-85.571 -219.901)"/></svg>